# xmcd CD database file
#
# Track frame offsets:
#	150
#	14250
#	31257
#	49473
#	67669
#	81508
#	98135
#	118645
#	136450
#	152715
#	171813
#	183413
#	198856
#	219123
#	236502
#	251944
#
# Disc length: 3533 seconds
#
# Revision: 0
# Processed by: cddbd v1.5.2PL0 Copyright (c) Steve Scherf et al.
# Submitted via: CDex 1.51
#
DISCID=d60dcb10
DTITLE=Norah Jones - KCRW Morning Becomes Eclectic, 2004 and 2007
DYEAR=2007
DGENRE=Jazz
TTITLE0=Norah Jones - Moon Song
TTITLE1=Norah Jones - What Am I To You
TTITLE2=Norah Jones - In The Morning
TTITLE3=Norah Jones - Sleepless Nights
TTITLE4=Norah Jones - Long Way Home
TTITLE5=Norah Jones - Creepin In
TTITLE6=Norah Jones - She
TTITLE7=Norah Jones - Toes
TTITLE8=Norah Jones - Foggy Today
TTITLE9=Norah Jones - Until The End
TTITLE10=Norah Jones - Little Room
TTITLE11=Norah Jones - My Dear Country
TTITLE12=Norah Jones - Sinkin' Soon
TTITLE13=Norah Jones - Rosie's Lullaby
TTITLE14=Norah Jones - Not Too Late
TTITLE15=Norah Jones - The Sun Doesn't Like You
EXTD=YEAR: 2007
EXTT0=
EXTT1=
EXTT2=
EXTT3=
EXTT4=
EXTT5=
EXTT6=
EXTT7=
EXTT8=
EXTT9=
EXTT10=
EXTT11=
EXTT12=
EXTT13=
EXTT14=
EXTT15=
PLAYORDER=
